<svg xmlns="http://www.w3.org/2000/svg" width="75.712" height="70.168" viewBox="0 0 75.712 70.168"><g transform="translate(0 0)"><path d="M73.542,228.471a2.16,2.16,0,0,0-2.169,2.169v19.731a9.734,9.734,0,0,1-9.721,9.721H14.059a9.734,9.734,0,0,1-9.721-9.721V230.319a2.169,2.169,0,1,0-4.338,0v20.053a14.075,14.075,0,0,0,14.059,14.059H61.652a14.075,14.075,0,0,0,14.059-14.059V230.641A2.17,2.17,0,0,0,73.542,228.471Z" transform="translate(0 -194.263)" fill="#fff"/><path d="M140.017,34.748l10.091-10.091v44.01a2.169,2.169,0,1,0,4.338,0V24.657l10.091,10.091a2.183,2.183,0,0,0,1.526.643,2.09,2.09,0,0,0,1.526-.643,2.163,2.163,0,0,0,0-3.069L153.8,17.893a2.195,2.195,0,0,0-1.526-.643,2.1,2.1,0,0,0-1.526.643L136.964,31.679a2.164,2.164,0,1,0,3.053,3.069Z" transform="translate(-114.421 -17.25)" fill="#fff"/></g></svg>