<?xml version="1.0" encoding="utf-8"?>
<!-- Generator: Adobe Illustrator 25.2.1, SVG Export Plug-In . SVG Version: 6.00 Build 0)  -->
<svg version="1.0" id="Warstwa_1" xmlns="http://www.w3.org/2000/svg" xmlns:xlink="http://www.w3.org/1999/xlink" x="0px" y="0px"
	 viewBox="0 0 407.5 150" style="enable-background:new 0 0 407.5 150;" xml:space="preserve">
<style type="text/css">
	.st0{fill:#FFFFFF;}
	.st1{fill:#E32B34;}
</style>
<g>
	<g>
		<path class="st0" d="M397,148.5H10.5c-4.9,0-9-4.1-9-9v-129c0-4.9,4.1-9,9-9H397c5,0,9,4.1,9,9v129C406,144.4,402,148.5,397,148.5
			z"/>
		<path class="st1" d="M397,150H10.5C4.7,150,0,145.3,0,139.5v-129C0,4.7,4.7,0,10.5,0H397c5.8,0,10.5,4.7,10.5,10.5v129
			C407.5,145.3,402.8,150,397,150z M10.5,3C6.3,3,3,6.3,3,10.5v129c0,4.1,3.4,7.5,7.5,7.5H397c4.1,0,7.5-3.4,7.5-7.5v-129
			c0-4.1-3.4-7.5-7.5-7.5H10.5z"/>
	</g>
	<path class="st1" d="M137.7,143.2H13.8c-3.3,0-6-2.7-6-6V12.9c0-3.3,2.7-6,6-6h123.9c3.3,0,6,2.7,6,6v124.3
		C143.7,140.5,141,143.2,137.7,143.2z"/>
	<path class="st0" d="M59.2,51.5l0.5,0l66.1,0V32.3c0-3.9-3.1-7.2-7-7.2h-85c-3.9,0-7.2,3.3-7.2,7.2v86.6c0,3.9,3.3,7.5,7.2,7.5h85
		c3.9,0,7-3.6,7-7.5V99.5l-36.9,0c-0.8,0-1.5,0.1-2.1,0.7c-0.6,0.6-0.8,1.3-0.9,2.2c0,0.6,0,1.2,0,1.8c0,0.5-0.2,0.6-0.6,0.7l-0.4,0
		c-3.4,0-6.9,0-10.3,0l-0.4-0.1c-2-2-4.3-3.5-6.9-4.6c-2.6-1.1-5.2-2.3-7.7-3.4c-0.9-0.4-1.7-0.9-2.4-1.6c-0.5-0.5-0.8-1.1-0.8-1.9
		c0-2.7,0-5.4,0-8.1c0-1.5,1.2-3,2.6-3.3l0.5,0l66.1,0V69.1l-36.9,0c-0.8,0-1.5,0.1-2.1,0.7C86.2,70.4,86,71.1,86,72
		c0,0.6,0,1.2,0,1.8c0,0.5-0.2,0.6-0.6,0.7l-0.4,0c-3.4,0-6.9,0-10.3,0l-0.4-0.1c-2-2-4.3-3.5-6.9-4.6c-2.6-1.1-5.2-2.3-7.7-3.4
		c-0.9-0.4-1.7-0.9-2.4-1.6c-0.5-0.5-0.8-1.1-0.8-1.9c0-2.7,0-5.4,0-8.1C56.5,53.2,57.7,51.8,59.2,51.5z"/>
	<g>
		<g>
			<path class="st1" d="M167.8,61.7H180v7.5h-20.9V22.4H180v7.5h-12.2v11.6h11V49h-11V61.7z"/>
			<path class="st1" d="M180.7,69.9h-22.3V21.7h22.3v8.9h-12.2v10.2h11v8.9h-11v11.3h12.2V69.9z M159.8,68.5h19.5v-6.1h-12.2V48.3
				h11v-6.1h-11v-13h12.2v-6.1h-19.5V68.5z"/>
		</g>
		<g>
			<path class="st1" d="M199,22.4h8.8v39.3h11.2v7.5H199V22.4z"/>
			<path class="st1" d="M219.6,69.9h-21.3V21.7h10.2v39.3h11.2V69.9z M199.7,68.5h18.5v-6.1h-11.2V23.1h-7.4V68.5z"/>
		</g>
		<g>
			<path class="st1" d="M245.9,61.7H258v7.5h-20.9V22.4H258v7.5h-12.2v11.6h11V49h-11V61.7z"/>
			<path class="st1" d="M258.7,69.9h-22.3V21.7h22.3v8.9h-12.2v10.2h11v8.9h-11v11.3h12.2V69.9z M237.8,68.5h19.5v-6.1h-12.2V48.3
				h11v-6.1h-11v-13h12.2v-6.1h-19.5V68.5z"/>
		</g>
		<g>
			<path class="st1" d="M297.9,69.2h-14.4l-8-46.8h8.8l6.2,36.4h0.2l6.4-36.4h8.8L297.9,69.2z"/>
			<path class="st1" d="M298.5,69.9h-15.6l-0.1-0.6l-8.2-47.6h10.2l5.7,33.6l5.9-33.6h10.2L298.5,69.9z M284.1,68.5h13.2l7.8-45.4
				h-7.4l-6.4,36.4h-1.4l-6.2-36.4h-7.4L284.1,68.5z"/>
		</g>
		<g>
			<path class="st1" d="M333,61.7h12.2v7.5h-20.9V22.4h20.9v7.5H333v11.6h11V49h-11V61.7z"/>
			<path class="st1" d="M345.9,69.9h-22.3V21.7h22.3v8.9h-12.2v10.2h11v8.9h-11v11.3h12.2V69.9z M324.9,68.5h19.5v-6.1h-12.2V48.3
				h11v-6.1h-11v-13h12.2v-6.1h-19.5V68.5z"/>
		</g>
		<g>
			<path class="st1" d="M373,22.4l8.1,25.8h0.1V22.4h8.2v46.8h-9.2l-7.4-24.5h-0.1v24.5h-8.6V22.4H373z"/>
			<path class="st1" d="M390.1,69.9h-10.4l-6.3-20.7v20.7h-10V21.7h10l6.9,22.2V21.7h9.6V69.9z M380.7,68.5h7.9V23.1h-6.8v25.8h-1.2
				l-0.2-0.5l-7.9-25.3h-7.6v45.4h7.2V44h1.2l0.2,0.5L380.7,68.5z"/>
		</g>
	</g>
	<g>
		<g>
			<g>
				<path class="st1" d="M171.9,83.9c9.3,0,11.7,1.9,11.7,10.7v5.3h-8.7v-5.9c0-2.6-1.1-2.8-3-2.8h-0.9c-1.9,0-3,0.2-3,2.8v3.7
					c0,3.3,1,3.6,4.7,5l4.4,1.5c4.1,1.5,6.9,2.4,6.9,9.1v7.2c0,8.7-2.5,10.7-11.7,10.7h-1.2c-9.3,0-11.7-2-11.7-10.7v-5.5h8.7v6
					c0,2.7,1.1,2.9,3,2.9h1.2c1.8,0,3-0.2,3-2.9v-5.5c0-2.9-1.3-3-4-4.2l-4.7-1.7c-4.1-1.6-7.2-2.7-7.2-9.3v-5.7
					c0-8.7,2.5-10.7,11.7-10.7H171.9z"/>
				<path class="st1" d="M172.1,131.7h-1.2c-9.7,0-12.4-2.4-12.4-11.3v-6.2h10.1v6.7c0,2.1,0.6,2.2,2.3,2.2h1.2
					c1.6,0,2.3-0.1,2.3-2.2v-5.5c0-2-0.6-2.3-2.5-3.1c-0.3-0.1-0.7-0.3-1.1-0.5l-4.8-1.7c-4-1.6-7.5-2.9-7.5-9.9v-5.7
					c0-9,2.6-11.3,12.4-11.3h0.9c9.9,0,12.4,2.3,12.4,11.3v6h-10.1v-6.6c0-2-0.6-2.1-2.3-2.1h-0.9c-1.7,0-2.3,0.1-2.3,2.1v3.7
					c0,2.7,0.5,2.9,4.1,4.3l0.2,0.1l4.5,1.6c4,1.4,7.2,2.6,7.2,9.7v7.2C184.6,129.3,181.9,131.7,172.1,131.7z M159.9,115.6v4.8
					c0,8.2,2,10,11,10h1.2c9,0,11-1.9,11-10v-7.2c0-6.1-2.4-6.9-6.3-8.4l-4.7-1.6c-3.6-1.4-5-1.9-5-5.6v-3.7c0-3.2,1.7-3.5,3.7-3.5
					h0.9c1.9,0,3.7,0.3,3.7,3.5v5.2h7.3v-4.6c0-8.2-2-10-11-10h-0.9c-9.1,0-11,1.8-11,10v5.7c0,6,2.6,7,6.6,8.6l0.1,0l4.7,1.7
					c0.4,0.2,0.8,0.3,1.1,0.5c2,0.8,3.4,1.4,3.4,4.4v5.5c0,3.3-1.8,3.6-3.7,3.6h-1.2c-1.9,0-3.7-0.3-3.7-3.6v-5.3H159.9z"/>
			</g>
			<g>
				<path class="st1" d="M198.6,84.1h13c9.1,0,11.3,2.1,11.3,10.1v11.3c0,8.3-2.3,10.1-11.3,10.1h-4.3v15.1h-8.7V84.1z M207.4,91.4
					v17h4.1c1.5,0,2.7-0.2,2.7-2.4V93.8c0-2.3-1.1-2.5-2.7-2.5H207.4z"/>
				<path class="st1" d="M208.1,131.4h-10.1v-48h13.7c9.4,0,12,2.3,12,10.8v11.3c0,8.6-2.5,10.8-12,10.8h-3.6V131.4z M199.3,130h7.3
					v-15.1h5c8.7,0,10.6-1.7,10.6-9.4V94.2c0-7.7-2-9.4-10.6-9.4h-12.3V130z M211.5,109.1h-4.8V90.7h4.8c1.2,0,3.4,0,3.4,3.2V106
					C214.9,109.1,212.7,109.1,211.5,109.1z M208.1,107.7h3.4c1.5,0,2-0.1,2-1.7V93.8c0-1.6-0.5-1.8-2-1.8h-3.4V107.7z"/>
			</g>
			<g>
				<path class="st1" d="M250.1,83.9c9.3,0,11.7,1.9,11.7,10.7v25.8c0,8.7-2.5,10.7-11.7,10.7h-1.7c-9.3,0-11.7-2.1-11.7-10.7V94.5
					c0-8.7,2.5-10.7,11.7-10.7H250.1z M250,123.7c1.8,0,3.1-0.3,3.1-2.9V94c0-2.7-1.3-2.9-3.1-2.9h-1.5c-1.9,0-3.1,0.3-3.1,2.9v26.8
					c0,2.7,1.2,2.9,3.1,2.9H250z"/>
				<path class="st1" d="M250.1,131.7h-1.7c-9.7,0-12.4-2.4-12.4-11.3V94.5c0-8.9,2.7-11.3,12.4-11.3h1.7c9.7,0,12.4,2.4,12.4,11.3
					v25.8C262.5,129.3,259.8,131.7,250.1,131.7z M248.4,84.5c-9.1,0-11,1.8-11,10v25.8c0,8.1,2.1,10,11,10h1.7c9,0,11-1.9,11-10
					V94.5c0-8.2-2-10-11-10H248.4z M250,124.4h-1.5c-1.9,0-3.8-0.3-3.8-3.6V94c0-3.3,1.9-3.6,3.8-3.6h1.5c1.8,0,3.8,0.3,3.8,3.6
					v26.8C253.8,124.2,251.8,124.4,250,124.4z M248.5,91.8c-1.8,0-2.4,0.2-2.4,2.2v26.8c0,2.1,0.6,2.2,2.4,2.2h1.5
					c1.7,0,2.4-0.2,2.4-2.2V94c0-2-0.6-2.2-2.4-2.2H248.5z"/>
			</g>
			<g>
				<path class="st1" d="M279.9,84.1h13.3c9,0,11.3,1.9,11.3,10.1v6.5c0,6-1.8,7.5-5.1,7.8c3.7,0.6,5.1,2.5,5.1,8.4v13.8h-8.8v-14.9
					c0-2.3-1-3.3-2.6-3.3h-4.4v18.2h-8.7V84.1z M288.7,105.4h4.5c1.5,0,2.5-0.2,2.5-2.5v-9.3c0-2.2-1.1-2.3-2.6-2.3h-4.4V105.4z"/>
				<path class="st1" d="M305.1,131.4H295v-15.6c0-2.6-1.4-2.6-1.9-2.6h-3.7v18.2h-10.1v-48h13.9c9.5,0,11.9,2.2,11.9,10.8v6.5
					c0,4.4-0.9,6.8-3.2,7.9c2.3,1.2,3.2,3.7,3.2,8.3V131.4z M296.4,130h7.4v-13.1c0-5.9-1.5-7.2-4.5-7.7l-5.3-0.8l5.3-0.5
					c3-0.3,4.5-1.5,4.5-7.1v-6.5c0-7.8-1.9-9.4-10.6-9.4h-12.6V130h7.3v-18.2h5.1c1,0,3.3,0.4,3.3,4V130z M293.2,106.1H288V90.7h5.1
					c1.3,0,3.3,0,3.3,3v9.3C296.4,105.9,294.8,106.1,293.2,106.1z M289.4,104.7h3.8c1.3,0,1.8,0,1.8-1.8v-9.3c0-1.6-0.5-1.6-1.9-1.6
					h-3.7V104.7z"/>
			</g>
			<g>
				<path class="st1" d="M340.6,130.7h-8.8V91.6h-8.3v-7.5h25.3v7.5h-8.3V130.7z"/>
				<path class="st1" d="M341.3,131.4h-10.2V92.3h-8.3v-8.8h26.7v8.8h-8.3V131.4z M332.5,130h7.4V90.9h8.3v-6.1h-23.9v6.1h8.3V130z"
					/>
			</g>
			<g>
				<path class="st1" d="M378.2,83.9c9.3,0,11.7,1.9,11.7,10.7v5.3h-8.7v-5.9c0-2.6-1.1-2.8-3-2.8h-0.9c-1.9,0-3,0.2-3,2.8v3.7
					c0,3.3,1,3.6,4.7,5l4.4,1.5c4.1,1.5,6.9,2.4,6.9,9.1v7.2c0,8.7-2.5,10.7-11.7,10.7h-1.2c-9.3,0-11.7-2-11.7-10.7v-5.5h8.7v6
					c0,2.7,1.1,2.9,3,2.9h1.2c1.8,0,3-0.2,3-2.9v-5.5c0-2.9-1.3-3-4-4.2l-4.7-1.7c-4.1-1.6-7.2-2.7-7.2-9.3v-5.7
					c0-8.7,2.5-10.7,11.7-10.7H378.2z"/>
				<path class="st1" d="M378.5,131.7h-1.2c-9.7,0-12.4-2.4-12.4-11.3v-6.2H375v6.7c0,2.1,0.6,2.2,2.3,2.2h1.2
					c1.6,0,2.3-0.1,2.3-2.2v-5.5c0-2-0.6-2.3-2.5-3.1c-0.3-0.1-0.7-0.3-1.1-0.5l-4.8-1.7c-4-1.6-7.5-2.9-7.5-9.9v-5.7
					c0-9,2.6-11.3,12.4-11.3h0.9c9.9,0,12.4,2.3,12.4,11.3v6h-10.1v-6.6c0-2-0.6-2.1-2.3-2.1h-0.9c-1.7,0-2.3,0.1-2.3,2.1v3.7
					c0,2.7,0.5,2.9,4.1,4.3l0.2,0.1l4.5,1.6c4,1.4,7.2,2.6,7.2,9.7v7.2C390.9,129.3,388.2,131.7,378.5,131.7z M366.3,115.6v4.8
					c0,8.2,2,10,11,10h1.2c9,0,11-1.9,11-10v-7.2c0-6.1-2.4-6.9-6.3-8.4l-4.7-1.6c-3.6-1.4-5-1.9-5-5.6v-3.7c0-3.2,1.7-3.5,3.7-3.5
					h0.9c1.9,0,3.7,0.3,3.7,3.5v5.2h7.3v-4.6c0-8.2-2-10-11-10h-0.9c-9.1,0-11,1.8-11,10v5.7c0,6,2.6,7,6.6,8.6l0.1,0l4.7,1.7
					c0.4,0.2,0.8,0.3,1.1,0.5c2,0.8,3.4,1.4,3.4,4.4v5.5c0,3.3-1.8,3.6-3.7,3.6h-1.2c-1.9,0-3.7-0.3-3.7-3.6v-5.3H366.3z"/>
			</g>
		</g>
	</g>
</g>
</svg>
