<svg xmlns="http://www.w3.org/2000/svg" width="196.458" height="60.932" viewBox="0 0 196.458 60.932"><rect width="3.668" height="13.5" transform="translate(0 43.668)" fill="#fff"/><g transform="translate(6.089 46.656)"><path d="M16.7,114.435c0-1.4-.738-2.08-2.231-2.08a2.615,2.615,0,0,0-2.855,2.931v4.9H8.287V110.048H11.5v1.475h.037a5.291,5.291,0,0,1,4.141-1.74c1.721,0,4.349.662,4.349,3.649v6.751H16.7Z" transform="translate(-8.287 -109.67)" fill="#fff"/><path d="M39.749,117c.151.87.756,1.437,2.477,1.437,1.513,0,2.4-.359,2.4-1.1,0-.567-.284-.794-1.891-1.021l-3.026-.417c-2.117-.284-3.328-.945-3.328-2.873,0-2.742,2.779-3.4,5.54-3.4,4.67,0,5.767,1.531,5.994,3.422H44.25c-.189-1.04-1.286-1.342-2.25-1.342-.869,0-2.174.076-2.174,1.078,0,.473.245.794,1.683.946l2.307.245c3.385.359,4.481,1.361,4.481,3.12,0,3.006-3.366,3.422-6.258,3.422-3.838,0-5.786-1.115-5.956-3.517Z" transform="translate(-15.66 -109.629)" fill="#fff"/><path d="M64.728,114v-.037c0-.549-.7-2.25-3.139-2.25a2.92,2.92,0,0,0-3.176,2.25V114Zm3.253,3.12c-.964,2.4-3.271,3.4-6.316,3.4-4.008,0-6.693-1.626-6.693-5.446s2.685-5.445,6.693-5.445c4.387,0,6.5,2.212,6.5,6.031v.3H58.413V116c0,.964.983,2.438,3.252,2.438a2.89,2.89,0,0,0,2.761-1.323Z" transform="translate(-20.672 -109.629)" fill="#fff"/><path d="M75.251,110.048h3.214v1.986H78.5c1.21-1.551,2.156-2.25,4.047-2.25a6.581,6.581,0,0,1,1.21.094V113a6.76,6.76,0,0,0-1.834-.3c-2.27,0-3.347,1.154-3.347,3.12v4.368H75.251Z" transform="translate(-26.052 -109.67)" fill="#fff"/></g><path d="M86.987,110.144h3.782l2.76,7.11,2.761-7.11h3.782L95.42,120.279H91.638Z" transform="translate(-23.077 -63.11)" fill="#fff"/><path d="M106.032,108.847h3.328v10.135h-3.328Zm0-3.593h3.328V107.6h-3.328Z" transform="translate(-28.129 -61.813)" fill="#fff"/><g transform="translate(83.027 1.435)"><path d="M122.46,113.751a2.5,2.5,0,0,0-2.761-1.777c-2.06,0-3.252,1.115-3.252,3.1s1.192,3.1,3.252,3.1a2.534,2.534,0,0,0,2.761-2.061H125.9c-.605,3.593-3.177,4.405-6.485,4.405-3.82,0-6.41-1.626-6.41-5.446s2.685-5.446,6.693-5.446c2.572,0,5.579.775,6.2,4.122Z" transform="translate(-113.006 -64.409)" fill="#fff"/><path d="M141.7,114v-.037c0-.549-.7-2.25-3.139-2.25a2.92,2.92,0,0,0-3.176,2.25V114Zm3.253,3.12c-.964,2.4-3.271,3.4-6.316,3.4-4.009,0-6.693-1.626-6.693-5.446s2.685-5.445,6.693-5.445c4.387,0,6.505,2.212,6.505,6.031v.3h-9.757V116c0,.964.983,2.438,3.252,2.438a2.889,2.889,0,0,0,2.761-1.323Z" transform="translate(-118.031 -64.409)" fill="#fff"/><path d="M162.458,111.024h-2.1v-2.231h2.1v-.511c0-2.723.832-3.233,3.933-3.233.454,0,1.286.018,2.1.037v2.08c-.567-.019-1.116-.037-1.683-.037-.586,0-1.021.094-1.021,1.04v.624h2.667v2.231h-2.667v7.9h-3.328Z" transform="translate(-125.568 -63.194)" fill="#fff"/><path d="M178.763,118.176c2.061,0,3.253-1.115,3.253-3.1s-1.192-3.1-3.253-3.1-3.253,1.115-3.253,3.1,1.192,3.1,3.253,3.1m0-8.546c4.009,0,6.693,1.626,6.693,5.445s-2.685,5.446-6.693,5.446-6.694-1.627-6.694-5.446,2.685-5.445,6.694-5.445" transform="translate(-128.675 -64.409)" fill="#fff"/><path d="M192.736,110.048h3.214v1.986h.038c1.209-1.551,2.155-2.25,4.046-2.25a6.585,6.585,0,0,1,1.21.094V113a6.76,6.76,0,0,0-1.834-.3c-2.269,0-3.347,1.154-3.347,3.12v4.368h-3.327Z" transform="translate(-134.157 -64.45)" fill="#fff"/><path d="M225.744,110.144l-5.54,11.8c-.794,1.7-1.7,2.1-3.555,2.1-.775,0-1.569-.038-2.344-.076v-2.344c.472.037.964.076,1.437.076a1.59,1.59,0,0,0,1.569-1.04l.34-.738-4.765-9.775H216.5l2.893,6.693,2.8-6.693Z" transform="translate(-139.503 -64.545)" fill="#fff"/><path d="M237.441,118.176c2.061,0,3.253-1.115,3.253-3.1s-1.192-3.1-3.253-3.1-3.253,1.115-3.253,3.1,1.192,3.1,3.253,3.1m0-8.546c4.009,0,6.693,1.626,6.693,5.445s-2.685,5.446-6.693,5.446-6.693-1.627-6.693-5.446,2.685-5.445,6.693-5.445" transform="translate(-144.241 -64.409)" fill="#fff"/><path d="M259.916,118.917h-.038a5.291,5.291,0,0,1-4.14,1.741c-1.721,0-4.349-.662-4.349-3.65v-6.863h3.328v5.861c0,1.4.738,2.081,2.27,2.081a2.568,2.568,0,0,0,2.817-2.874v-5.067h3.328V120.28h-3.214Z" transform="translate(-149.717 -64.546)" fill="#fff"/><path d="M163.677,62.373c4.663,0,4.6-6.95,0-6.95h-4.455v6.95Zm7.328,5.039,10.207,11.955H169.839L159.293,67.344h-.088V79.366h-9.111V48.081H164.04c1.123,0,12.217-.176,12.217,9.907,0,5.988-3.468,8.086-5.251,9.423" transform="translate(-122.845 -48.081)" fill="#fff"/></g><path d="M236.484,58.912h-.074l-3.638,9.2H240.2ZM229.929,75.47l-1.619,3.918h-9.883l13.251-31.273h9.466L254.4,79.388h-9.54l-1.478-3.918Z" transform="translate(-57.946 -46.654)" fill="#fff"/><path d="M75.425,67.865l7.591-19.751H93.494L80.306,79.388H70.354L57.461,48.114H67.479Z" transform="translate(-15.244 -46.654)" fill="#fff"/><path d="M117.051,58.912h-.093l-3.627,9.2h7.442ZM110.492,75.47l-1.62,3.918H99.011l13.238-31.273h9.458l13.281,31.273h-9.555l-1.475-3.918Z" transform="translate(-26.266 -46.654)" fill="#fff"/><path d="M206.4,79.388h-9.5V56.368h-8.3V48.114h27v8.254h-9.2Z" transform="translate(-50.033 -46.654)" fill="#fff"/><g transform="translate(110.276 1.435)"><path d="M163.677,62.373c4.663,0,4.6-6.95,0-6.95h-4.455v6.95Zm7.328,5.039,10.207,11.955H169.839L159.293,67.344h-.088V79.366h-9.111V48.081H164.04c1.123,0,12.217-.176,12.217,9.907,0,5.988-3.468,8.086-5.251,9.423" transform="translate(-150.094 -48.081)" fill="#fff"/></g><path d="M236.484,58.912h-.074l-3.638,9.2H240.2ZM229.929,75.47l-1.619,3.918h-9.883l13.251-31.273h9.466L254.4,79.388h-9.54l-1.478-3.918Z" transform="translate(-57.946 -46.654)" fill="#fff"/><path d="M4.629,75.463H29.411V50.681H4.629Zm29.336,4.554H.075V46.127H33.964Z" transform="translate(-0.02 -46.127)" fill="#fff"/><rect width="29.336" height="29.336" transform="translate(2.332 2.278)" fill="#284393"/><path d="M3.173,49.227l14.765,26.4,14.571-26.4Z" transform="translate(-0.842 -46.949)" fill="#efc700"/></svg>