<?xml version="1.0" encoding="utf-8"?>
<svg xmlns="http://www.w3.org/2000/svg" width="65" height="65" viewBox="0 0 65 65">
    <g transform="translate(-125.5 300.11)">
        <circle cx="7.144" cy="7.144" r="7.144" transform="translate(150.856 -274.754)"
                fill="#fff"></circle>
        <path
            d="M167.136-285.666H148.864a8.919,8.919,0,0,0-8.92,8.92v18.272a8.919,8.919,0,0,0,8.92,8.92h18.272a8.92,8.92,0,0,0,8.92-8.92v-18.272A8.92,8.92,0,0,0,167.136-285.666ZM158-255.918a11.705,11.705,0,0,1-11.692-11.692A11.705,11.705,0,0,1,158-279.3a11.705,11.705,0,0,1,11.692,11.692A11.705,11.705,0,0,1,158-255.918Zm11.715-20.495a2.8,2.8,0,0,1-2.8-2.8,2.8,2.8,0,0,1,2.8-2.8,2.8,2.8,0,0,1,2.8,2.8A2.8,2.8,0,0,1,169.715-276.413Z"
            fill="#fff"></path>
        <path
            d="M125.5-300.11v65h65v-65Zm55.1,41.636a13.484,13.484,0,0,1-13.468,13.468H148.864A13.484,13.484,0,0,1,135.4-258.474v-18.272a13.484,13.484,0,0,1,13.468-13.468h18.272A13.484,13.484,0,0,1,180.6-276.746Z"
            fill="#fff"></path>
    </g>
</svg>
