<?xml version="1.0" encoding="utf-8"?>
<svg xmlns="http://www.w3.org/2000/svg" width="64.175" height="64.736">
    <circle cx="6.394" cy="6.394" r="6.394" transform="translate(25.693 25.974)" fill="#030d3e"></circle>
    <path d="M41.783 12.927H22.392a9.535 9.535 0 00-9.465 9.6V42.2a9.535 9.535 0 009.465 9.6h19.391a9.535 9.535 0 009.465-9.6V22.527a9.535 9.535 0 00-9.465-9.6zm-9.695 32.03a12.513 12.513 0 01-12.405-12.589 12.513 12.513 0 0112.4-12.589A12.513 12.513 0 0144.49 32.368a12.513 12.513 0 01-12.407 12.589zm12.431-22.064a3 3 0 01-2.973-3.017 3 3 0 012.973-3.016 3 3 0 012.973 3.016 3 3 0 01-2.973 3.017z" fill="#030d3e"></path>
    <path d="M0 0v64.736h64.175V0zm54.4 41.467A13.371 13.371 0 0141.1 54.88H23.06a13.371 13.371 0 01-13.3-13.413v-18.2a13.371 13.371 0 0113.3-13.413H41.1a13.371 13.371 0 0113.3 13.413z" fill="#030d3e"></path>
</svg>
