<?xml version="1.0" encoding="utf-8"?>
<svg xmlns="http://www.w3.org/2000/svg" width="65" height="65" viewBox="0 0 65 65">
    <path d="M93.814,102.874l10.572-6.089L93.814,90.7Zm0,0"
          transform="translate(-65.362 -64.285)" fill="#fff"></path>
    <path
        d="M50.34,50.34v65h65v-65Zm52.808,32.533s0,6.591-.836,9.769a5.089,5.089,0,0,1-3.58,3.58c-3.178.836-15.891.836-15.891.836s-12.68,0-15.891-.87a5.089,5.089,0,0,1-3.58-3.58c-.837-3.145-.837-9.769-.837-9.769s0-6.59.837-9.769a5.192,5.192,0,0,1,3.58-3.613c3.178-.836,15.891-.836,15.891-.836s12.713,0,15.891.87a5.089,5.089,0,0,1,3.58,3.58C103.181,76.25,103.148,82.873,103.148,82.873Z"
        transform="translate(-50.34 -50.34)" fill="#fff"></path>
    <path d="M131.03,100.051" transform="translate(-78.222 -67.518)" fill="#fff"></path>
</svg>
