<?xml version="1.0" encoding="utf-8"?>
<svg xmlns="http://www.w3.org/2000/svg" width="64.175" height="64.737">
    <path d="M28.601 37.823l9.462-5.45-9.462-5.45zm0 0" fill="#030d3e"></path>
    <path d="M0 0v64.736h64.175V0zm52.138 32.4s0 6.564-.826 9.729a5.047 5.047 0 01-3.534 3.565c-3.138.833-15.69.833-15.69.833s-12.519 0-15.69-.866a5.047 5.047 0 01-3.538-3.563c-.826-3.132-.826-9.729-.826-9.729s0-6.564.826-9.729a5.149 5.149 0 013.534-3.6c3.138-.833 15.69-.833 15.69-.833s12.552 0 15.69.866a5.047 5.047 0 013.534 3.565c.862 3.167.83 9.763.83 9.763z" fill="#030d3e"></path>
</svg>
