<?xml version="1.0" encoding="utf-8"?>
<svg xmlns="http://www.w3.org/2000/svg" width="40.614" height="40.614"
     viewBox="0 0 40.614 40.614">
    <circle cx="4.464" cy="4.464" r="4.464" transform="translate(15.843 15.843)"
            fill="#fff"></circle>
    <path
        d="M156.935-285.666H145.518a5.573,5.573,0,0,0-5.574,5.574v11.417a5.573,5.573,0,0,0,5.574,5.574h11.417a5.573,5.573,0,0,0,5.574-5.574v-11.417A5.573,5.573,0,0,0,156.935-285.666Zm-5.709,18.588a7.314,7.314,0,0,1-7.306-7.306,7.314,7.314,0,0,1,7.306-7.306,7.314,7.314,0,0,1,7.306,7.306A7.314,7.314,0,0,1,151.226-267.078Zm7.32-12.806a1.751,1.751,0,0,1-1.751-1.751,1.751,1.751,0,0,1,1.751-1.75,1.751,1.751,0,0,1,1.751,1.75A1.751,1.751,0,0,1,158.546-279.884Z"
        transform="translate(-130.919 294.691)" fill="#fff"></path>
    <path
        d="M125.5-300.11V-259.5h40.614V-300.11Zm34.431,26.016a8.425,8.425,0,0,1-8.415,8.415H140.1a8.425,8.425,0,0,1-8.415-8.415v-11.417a8.425,8.425,0,0,1,8.415-8.415h11.417a8.425,8.425,0,0,1,8.415,8.415Z"
        transform="translate(-125.5 300.11)" fill="#fff"></path>
</svg>
