<?xml version="1.0" encoding="utf-8"?>
<svg xmlns="http://www.w3.org/2000/svg" width="40.614" height="40.614"
     viewBox="0 0 40.614 40.614">
    <g transform="translate(0 0)">
        <path d="M93.814,98.305l6.606-3.8-6.606-3.8Zm0,0"
              transform="translate(-76.036 -74.193)" fill="#fff"></path>
        <path
            d="M50.34,50.34V90.954H90.954V50.34Zm33,20.328a33.5,33.5,0,0,1-.523,6.1,3.18,3.18,0,0,1-2.237,2.237c-1.986.523-9.93.523-9.93.523s-7.923,0-9.93-.543a3.18,3.18,0,0,1-2.237-2.237,35.881,35.881,0,0,1,0-12.208,3.244,3.244,0,0,1,2.237-2.258c1.986-.523,9.93-.523,9.93-.523s7.944,0,9.93.543a3.18,3.18,0,0,1,2.237,2.237A31.816,31.816,0,0,1,83.336,70.668Z"
            transform="translate(-50.34 -50.34)" fill="#fff"></path>
        <path d="M131.03,100.051" transform="translate(-98.034 -79.723)" fill="#fff"></path>
    </g>
</svg>
